<svg width="60" height="60" viewBox="0 0 60 60" fill="none" xmlns="http://www.w3.org/2000/svg">
<g id="Icons">
<path id="Vector" d="M30 44.9995L24.5 12.9995M32.5 44.9996C32.5 46.3803 31.3807 47.4996 30 47.4996C28.6193 47.4996 27.5 46.3803 27.5 44.9996C27.5 43.6189 28.6193 42.4996 30 42.4996C31.3807 42.4996 32.5 43.6189 32.5 44.9996ZM7.5 22.4996L21.25 36.2496C23.5866 33.9593 26.7281 32.6764 30 32.6764C33.2719 32.6764 36.4134 33.9593 38.75 36.2496L52.5 22.4996C49.6847 19.3074 46.2225 16.7508 42.3431 14.9996C38.4638 13.2484 34.2563 12.3428 30 12.3428C25.7437 12.3428 21.5362 13.2484 17.6569 14.9996C13.7775 16.7508 10.3153 19.3074 7.5 22.4996Z" stroke="#0F2E4A" stroke-width="3" stroke-linecap="round" stroke-linejoin="round"/>
</g>
</svg>
