<svg width="60" height="60" viewBox="0 0 60 60" fill="none" xmlns="http://www.w3.org/2000/svg">
<g id="Icons">
<path id="Vector" d="M22.5 30.0002L27.5 35.0002L37.5 25.0002M12.4999 18.0002C12.4999 16.5415 13.0794 15.1425 14.1108 14.1111C15.1423 13.0796 16.5412 12.5002 17.9999 12.5002H20.4999C21.9522 12.4993 23.3452 11.9242 24.3749 10.9002L26.1249 9.15018C26.6361 8.63618 27.2437 8.22828 27.913 7.94994C28.5823 7.67161 29.3001 7.52832 30.0249 7.52832C30.7498 7.52832 31.4675 7.67161 32.1368 7.94994C32.8061 8.22828 33.4138 8.63618 33.9249 9.15018L35.6749 10.9002C36.7049 11.9252 38.0999 12.5002 39.5499 12.5002H42.0499C43.5086 12.5002 44.9076 13.0796 45.939 14.1111C46.9705 15.1425 47.5499 16.5415 47.5499 18.0002V20.5002C47.5499 21.9502 48.1249 23.3452 49.1499 24.3752L50.8999 26.1252C51.4139 26.6363 51.8218 27.244 52.1002 27.9133C52.3785 28.5826 52.5218 29.3003 52.5218 30.0252C52.5218 30.75 52.3785 31.4678 52.1002 32.1371C51.8218 32.8064 51.4139 33.4141 50.8999 33.9252L49.1499 35.6752C48.1259 36.705 47.5508 38.0979 47.5499 39.5502V42.0502C47.5499 43.5089 46.9705 44.9078 45.939 45.9393C44.9076 46.9707 43.5086 47.5502 42.0499 47.5502H39.5499C38.0977 47.551 36.7047 48.1262 35.6749 49.1502L33.9249 50.9002C33.4138 51.4142 32.8061 51.8221 32.1368 52.1004C31.4675 52.3787 30.7498 52.522 30.0249 52.522C29.3001 52.522 28.5823 52.3787 27.913 52.1004C27.2437 51.8221 26.6361 51.4142 26.1249 50.9002L24.3749 49.1502C23.3452 48.1262 21.9522 47.551 20.4999 47.5502H17.9999C16.5412 47.5502 15.1423 46.9707 14.1108 45.9393C13.0794 44.9078 12.4999 43.5089 12.4999 42.0502V39.5502C12.4991 38.0979 11.9239 36.705 10.8999 35.6752L9.14993 33.9252C8.63593 33.4141 8.22804 32.8064 7.9497 32.1371C7.67136 31.4678 7.52808 30.75 7.52808 30.0252C7.52808 29.3003 7.67136 28.5826 7.9497 27.9133C8.22804 27.244 8.63593 26.6363 9.14993 26.1252L10.8999 24.3752C11.9239 23.3454 12.4991 21.9524 12.4999 20.5002V18.0002Z" stroke="#0F2E4A" stroke-width="3" stroke-linecap="round" stroke-linejoin="round"/>
</g>
</svg>
