<svg width="60" height="60" viewBox="0 0 60 60" fill="none" xmlns="http://www.w3.org/2000/svg">
<g id="Icons">
<path id="Vector" d="M22.5 30L27.5 35L37.5 25M30.0001 7.5C35.8397 12.6664 43.4613 15.3564 51.2501 15C52.3841 18.8575 52.731 22.9037 52.2704 26.898C51.8097 30.8922 50.5509 34.7532 48.5686 38.2513C46.5863 41.7495 43.921 44.8135 40.7312 47.2612C37.5414 49.7089 33.892 51.4905 30.0001 52.5C26.1081 51.4905 22.4588 49.7089 19.2689 47.2612C16.0791 44.8135 13.4138 41.7495 11.4316 38.2513C9.44928 34.7532 8.19041 30.8922 7.72976 26.898C7.26912 22.9037 7.61609 18.8575 8.75007 15C16.5389 15.3564 24.1605 12.6664 30.0001 7.5Z" stroke="#0F2E4A" stroke-width="3" stroke-linecap="round" stroke-linejoin="round"/>
</g>
</svg>
